FFmpeg version SVN-r25716, Copyright (c) 2000-2010 the FFmpeg developers  built on Nov 10 2010 12:23:18 with gcc 4.1.2 20080704 (Red Hat 4.1.2-48)  configuration: --enable-libmp3lame --enable-shared --disable-mmx --arch=x86_64  libavutil     50.33. 0 / 50.33. 0  libavcore      0.12. 1 /  0.12. 1  libavcodec    52.94. 4 / 52.94. 4  libavformat   52.84. 0 / 52.84. 0  libavdevice   52. 2. 2 / 52. 2. 2  libavfilter    1.59. 0 /  1.59. 0  libswscale     0.12. 0 /  0.12. 0[mov,mp4,m4a,3gp,3g2,mj2 @ 0x54294c0] max_analyze_duration reachedInput #0, mov,mp4,m4a,3gp,3g2,mj2, from '/RAID10/data/converted_video_files/11805.mov':  Duration: 00:00:05.66, bitrate: 1240 kb/s    Stream #0.0(eng): Video: svq1, yuv410p, 372x309, 1239 kb/s, 12 fps, 60 tbr, 60 tbn, 60 tbc[buffer @ 0x542e860] w:372 h:309 pixfmt:yuv410p[ffsink @ 0x542ead0] auto-inserting filter 'auto-inserted scaler 0' between the filter 'src' and the filter 'out'[scale @ 0x542edf0] w:372 h:309 fmt:yuv410p -> w:372 h:309 fmt:yuv420p flags:0x4Output #0, flv, to '/RAID10/data/converted_video_files/11805.flv':  Metadata:    encoder         : Lavf52.84.0    Stream #0.0(eng): Video: flv, yuv420p, 372x309, q=2-31, 600 kb/s, 1k tbn, 24 tbcStream mapping:  Stream #0.0 -> #0.0Press [q] to stop encodingframe=   52 fps=  0 q=9.2 size=     316kB time=4.29 bitrate= 603.7kbits/s    frame=   68 fps=  0 q=8.4 Lsize=     381kB time=5.62 bitrate= 555.5kbits/s    video:380kB audio:0kB global headers:0kB muxing overhead 0.333500%